<svg version="1.1" xmlns="http://www.w3.org/2000/svg" xmlns:xlink="http://www.w3.org/1999/xlink" width="64" height="63.53662" viewBox="0,0,64,63.53662"><defs><linearGradient x1="225.9688" y1="179.14059" x2="235.29246" y2="186.36102" gradientUnits="userSpaceOnUse" id="color-1"><stop offset="0" stop-color="#8b5cf6"/><stop offset="1" stop-color="#a78bfa"/></linearGradient><linearGradient x1="248.78523" y1="179.07845" x2="258.10888" y2="186.29889" gradientUnits="userSpaceOnUse" id="color-2"><stop offset="0" stop-color="#8b5cf6"/><stop offset="1" stop-color="#a78bfa"/></linearGradient><linearGradient x1="225.96223" y1="176.10913" x2="253.32855" y2="183.72877" gradientUnits="userSpaceOnUse" id="color-3"><stop offset="0" stop-color="#8b5cf6"/><stop offset="1" stop-color="#a78bfa"/></linearGradient></defs><g transform="translate(-208,-148.23169)"><g data-paper-data="{&quot;isPaintingLayer&quot;:true}" fill-rule="nonzero" stroke="none" stroke-width="0" stroke-linecap="butt" stroke-linejoin="miter" stroke-miterlimit="10" stroke-dasharray="" stroke-dashoffset="0" style="mix-blend-mode: normal"><path d="M208,211.76831v-63.53662h64v63.53662z" fill="#ffffff"/><g><path d="M218.45569,195.12095c1.72447,-6.46381 6.19148,-22.30656 7.70703,-27.76673c1.30477,-4.70078 5.63366,-7.09432 10.33892,-5.80578c1.58831,0.43496 2.67672,1.59413 2.22433,3.17757c-0.94402,3.30421 -5.09194,18.13961 -7.83131,27.72784c-1.37086,4.79823 -5.82929,7.40951 -10.63184,6.05384c-1.08943,-0.30752 -2.26394,-1.67446 -1.80713,-3.38672z" fill="url(#color-1)"/><path d="M241.27211,195.05881c1.72447,-6.46381 6.19148,-22.30656 7.70703,-27.76673c1.30477,-4.70078 5.63366,-7.09432 10.33892,-5.80578c1.58831,0.43496 2.67672,1.59413 2.22433,3.17757c-0.94402,3.30421 -5.27417,18.46045 -8.01354,28.04868c-1.37086,4.79823 -5.64706,7.08867 -10.44961,5.733c-1.08943,-0.30752 -2.26394,-1.67446 -1.80713,-3.38672z" fill="url(#color-2)"/><path d="M249.75543,195.07801c0.45415,1.71297 -0.72248,3.07808 -1.81239,3.38391c-4.80465,1.34821 -9.25902,-1.27 -10.62242,-6.07035c-2.72446,-9.59248 -6.84933,-24.43429 -7.78821,-27.73997c-0.44993,-1.58414 0.64027,-2.74162 2.22926,-3.17411c4.70726,-1.28122 9.03243,1.11904 10.32989,5.82184c1.50706,5.46252 5.94945,21.31219 7.66387,27.77868z" data-paper-data="{&quot;index&quot;:null}" fill="url(#color-3)"/></g></g></g></svg>
